#N canvas 65 53 1535 847 10;
#X obj 350 604 dac~;
#X obj 279 180 phasor~;
#X msg 317 220 0;
#X obj 379 177 phasor~;
#X msg 417 217 0;
#X obj 372 128 * 1.01;
#X msg 227 220 0;
#X obj 204 180 osc~;
#X obj 184 149 * 0.5;
#X msg 264 220 1;
#X msg 353 220 0.3;
#X msg 451 217 0.3;
#X obj 833 152 bng 15 250 50 0 empty empty empty 17 7 0 10 -262144
-1 -1;
#X obj 833 268 line;
#X obj 354 389 *~;
#X floatatom 462 394 5 0 0 0 - - -, f 5;
#X obj 259 142 * 1;
#X obj 492 336 vcf~;
#X obj 530 150 vsl 15 128 0 127 0 0 empty empty empty 0 -9 0 10 -262144
-1 -1 0 1;
#X msg 725 319 0;
#X obj -143 239 phasor~;
#X obj -143 261 expr~ $v1 > $v2;
#X obj -299 -40 tgl 15 0 empty empty empty 17 7 0 10 -262144 -1 -1
0 1;
#X obj -244 -14 metro;
#X obj -244 8 f;
#X obj -244 30 mod 4;
#X obj -244 52 hradio 15 1 0 8 empty empty empty 0 -8 0 10 -262144
-1 -1 2;
#X obj -179 8 + 1;
#X obj -244 72 select 0 1 2 3;
#X obj -41 220 nbx 5 14 -1e+37 1e+37 0 0 empty empty empty 0 -8 0 10
-262144 -1 -1 50 256;
#X obj -41 239 * 0.01;
#X obj 354 523 *~ 0.1;
#X floatatom -236 250 5 0 0 0 - - -, f 5;
#X floatatom -143 147 5 0 0 0 - - -, f 5;
#X obj -182 208 * 1;
#X obj -226 203 bng 15 250 50 0 empty empty empty 17 7 0 10 -262144
-1 -1;
#X obj 289 291 *~ 1;
#X msg -244 157 2;
#X msg -221 136 3;
#X msg -197 115 4;
#X msg -173 94 6;
#X obj 370 441 audiopitch;
#X obj -343 412 hsl 128 15 0 127 0 0 empty empty empty -2 -8 0 10 -262144
-1 -1 0 1;
#X obj -139 502 line;
#X obj -139 477 pack;
#X msg -85 462 5;
#X floatatom -108 542 5 0 0 0 - - -, f 5;
#X obj -119 432 / 12.7;
#X obj -119 454 - 5;
#X floatatom 833 290 5 0 0 0 - - -, f 5;
#X obj 952 195 delay 40;
#X obj 470 556 writesf~;
#X msg 595 509 stop;
#X obj 218 459 dac~;
#X obj -142 336 *~ 2;
#X msg -41 198 50;
#X obj 214 257 *~ 0.1;
#X obj 289 257 *~ 0.1;
#X obj 389 254 *~ 0.1;
#X obj 342 -305 adc~;
#X obj 342 -259 *~ 1;
#X obj 447 -290 env~;
#X obj 803 -277 vsl 15 128 0 127 0 0 empty empty empty 0 -9 0 10 -262144
-1 -1 421 1;
#X floatatom 858 -123 5 0 0 0 - - -, f 5;
#X obj 610 -267 tgl 15 0 empty empty empty 17 7 0 10 -262144 -1 -1
0 1;
#X obj 763 -258 > 35;
#X obj 279 30 mtof;
#X obj -41 177 loadbang;
#X obj -135 -71 loadbang;
#X msg -135 -49 100;
#X msg 951 217 0 1500;
#X obj 344 -237 sigmund~ -maxfreq 3000 -npeak 10 -stabletime 40 -growth
5 notes;
#X obj -142 370 *~ 0.01;
#X msg 833 217 0 10;
#X obj 883 174 delay 10;
#X msg 883 217 1 30;
#X obj 6 -181 bng 15 250 50 0 empty empty empty 17 7 0 10 -262144 -1
-1;
#X obj 6 -65 line;
#X floatatom -32 -48 5 0 0 0 - - -, f 5;
#X obj 56 -159 delay 5;
#X floatatom 136 194 5 0 0 0 - - -, f 5;
#X obj 82 -48 bng 15 250 50 0 empty empty empty 17 7 0 10 -262144 -1
-1;
#X obj 94 158 * 2;
#X floatatom 63 220 5 0 0 0 - - -, f 5;
#X floatatom 466 -176 5 0 0 0 - - -, f 5;
#X floatatom 279 119 5 0 0 0 - - -, f 5;
#X obj 125 -138 delay 300;
#X floatatom 252 187 5 0 0 0 - - -, f 5;
#X msg 6 -116 1 5;
#X msg 56 -116 0.5 300;
#X msg 124 -116 1 300;
#X msg 504 493 open riff17.wav \, start;
#X obj 344 -173 s noteInBang;
#X obj 6 -209 r noteInBang;
#X obj 833 129 r noteInBang;
#X obj -244 -47 r noteInBang;
#X text -188 31 Arp For Square;
#X text 45 -180 Diving pitch routine;
#X connect 1 0 57 0;
#X connect 2 0 57 1;
#X connect 3 0 58 0;
#X connect 4 0 58 1;
#X connect 5 0 3 0;
#X connect 6 0 56 1;
#X connect 7 0 56 0;
#X connect 8 0 7 0;
#X connect 8 0 80 0;
#X connect 9 0 56 1;
#X connect 10 0 57 1;
#X connect 11 0 58 1;
#X connect 12 0 73 0;
#X connect 12 0 74 0;
#X connect 13 0 49 0;
#X connect 14 0 41 1;
#X connect 14 0 31 0;
#X connect 15 0 14 1;
#X connect 16 0 87 0;
#X connect 17 0 14 0;
#X connect 18 0 17 1;
#X connect 19 0 17 2;
#X connect 20 0 21 0;
#X connect 21 0 54 0;
#X connect 22 0 23 0;
#X connect 23 0 24 0;
#X connect 24 0 25 0;
#X connect 24 0 27 0;
#X connect 25 0 26 0;
#X connect 26 0 28 0;
#X connect 27 0 24 1;
#X connect 28 0 37 0;
#X connect 28 1 38 0;
#X connect 28 2 39 0;
#X connect 28 3 40 0;
#X connect 29 0 30 0;
#X connect 30 0 21 1;
#X connect 31 0 51 0;
#X connect 31 0 0 1;
#X connect 31 0 0 0;
#X connect 33 0 34 0;
#X connect 34 0 32 0;
#X connect 34 0 20 0;
#X connect 35 0 34 0;
#X connect 36 0 17 0;
#X connect 37 0 34 1;
#X connect 37 0 35 0;
#X connect 38 0 34 1;
#X connect 38 0 35 0;
#X connect 39 0 34 1;
#X connect 39 0 35 0;
#X connect 40 0 34 1;
#X connect 40 0 35 0;
#X connect 42 0 47 0;
#X connect 43 0 46 0;
#X connect 44 0 43 0;
#X connect 45 0 44 1;
#X connect 47 0 48 0;
#X connect 48 0 44 0;
#X connect 49 0 31 1;
#X connect 50 0 70 0;
#X connect 52 0 51 0;
#X connect 54 0 72 0;
#X connect 55 0 29 0;
#X connect 56 0 36 0;
#X connect 57 0 36 0;
#X connect 58 0 36 0;
#X connect 59 0 60 0;
#X connect 59 0 61 0;
#X connect 60 0 71 0;
#X connect 61 0 62 0;
#X connect 62 0 63 0;
#X connect 62 0 65 0;
#X connect 64 0 60 1;
#X connect 65 0 64 0;
#X connect 66 0 5 0;
#X connect 66 0 8 0;
#X connect 66 0 16 0;
#X connect 66 0 33 0;
#X connect 66 0 85 0;
#X connect 67 0 55 0;
#X connect 68 0 69 0;
#X connect 69 0 23 1;
#X connect 70 0 13 0;
#X connect 71 0 66 0;
#X connect 71 0 84 0;
#X connect 71 0 92 0;
#X connect 72 0 14 0;
#X connect 73 0 13 0;
#X connect 74 0 75 0;
#X connect 74 0 50 0;
#X connect 75 0 13 0;
#X connect 76 0 88 0;
#X connect 76 0 79 0;
#X connect 77 0 78 0;
#X connect 77 0 8 1;
#X connect 77 0 81 0;
#X connect 79 0 89 0;
#X connect 79 0 86 0;
#X connect 80 0 82 0;
#X connect 81 0 8 0;
#X connect 81 0 16 0;
#X connect 82 0 83 0;
#X connect 82 0 1 0;
#X connect 86 0 90 0;
#X connect 88 0 77 0;
#X connect 89 0 77 0;
#X connect 90 0 77 0;
#X connect 91 0 51 0;
#X connect 93 0 76 0;
#X connect 94 0 12 0;
#X connect 95 0 23 0;
