#N canvas 691 158 761 665 10;
#X obj 350 604 dac~;
#X obj 337 180 phasor~;
#X msg 377 233 0;
#X obj 494 177 phasor~;
#X msg 534 232 0;
#X obj 494 154 * 1.01;
#X msg 253 233 0;
#X obj 213 180 osc~;
#X obj 213 -107 * 0.5;
#X msg 290 233 1;
#X msg 413 233 0.3;
#X msg 568 232 0.3;
#X obj 833 62 bng 15 250 50 0 empty empty empty 17 7 0 10 -262144 -1
-1;
#X obj 833 268 line;
#X obj 354 388 *~;
#X obj 671 336 vcf~;
#X obj 697 196 vsl 15 128 0 127 0 0 empty empty empty 0 -9 0 10 -262144
-1 -1 0 1;
#X msg 722 319 0;
#X obj -143 239 phasor~;
#X obj -143 261 expr~ $v1 > $v2;
#X obj -299 -40 tgl 15 0 empty empty empty 17 7 0 10 -262144 -1 -1
0 1;
#X obj -244 -14 metro;
#X obj -244 8 f;
#X obj -244 30 mod 4;
#X obj -244 52 hradio 15 1 0 8 empty empty empty 0 -8 0 10 -262144
-1 -1 2;
#X obj -179 8 + 1;
#X obj -244 72 select 0 1 2 3;
#X obj -41 220 nbx 5 14 -1e+37 1e+37 0 0 empty empty empty 0 -8 0 10
-262144 -1 -1 50 256;
#X obj -41 239 * 0.01;
#X obj 354 523 *~ 0.1;
#X floatatom -236 250 5 0 0 0 - - -, f 5;
#X floatatom -160 143 5 0 0 0 - - -, f 5;
#X obj -182 208 * 1;
#X obj -226 203 bng 15 250 50 0 empty empty empty 17 7 0 10 -262144
-1 -1;
#X obj 289 291 *~ 1;
#X msg -244 157 2;
#X msg -221 136 3;
#X msg -197 115 4;
#X msg -173 94 6;
#X floatatom 833 290 5 0 0 0 - - -, f 5;
#X obj 470 556 writesf~;
#X msg 595 509 stop;
#X obj -142 284 *~ 2;
#X msg -41 198 50;
#X obj 214 257 *~ 0.1;
#X obj 338 257 *~ 0.1;
#X obj 495 254 *~ 0.1;
#X obj 738 -702 adc~;
#X obj 738 -656 *~ 1;
#X obj 843 -687 env~;
#X obj 1199 -674 vsl 15 128 0 127 0 0 empty empty empty 0 -9 0 10 -262144
-1 -1 293 1;
#X floatatom 1254 -520 5 0 0 0 - - -, f 5;
#X obj 1006 -664 tgl 15 0 empty empty empty 17 7 0 10 -262144 -1 -1
0 1;
#X obj 1159 -655 > 35;
#X obj 696 -559 mtof;
#X obj -41 177 loadbang;
#X obj -135 -71 loadbang;
#X msg -135 -49 100;
#X msg 1001 217 0 1500;
#X obj 740 -634 sigmund~ -maxfreq 3000 -npeak 10 -stabletime 40 -growth
5 notes;
#X obj 245 -412 bng 15 250 50 0 empty empty empty 17 7 0 10 -262144
-1 -1;
#X obj 245 -249 line;
#X floatatom 290 -232 5 0 0 0 - - -, f 5;
#X obj 286 -397 delay 5;
#X obj 213 -232 bng 15 250 50 0 empty empty empty 17 7 0 10 -262144
-1 -1;
#X obj 326 -90 * 2;
#X floatatom 284 -73 5 0 0 0 - - -, f 5;
#X floatatom 862 -573 5 0 0 0 - - -, f 5;
#X floatatom 768 -542 5 0 0 0 - - -, f 5;
#X obj 408 -380 delay 300;
#X msg 245 -284 1 5;
#X msg 408 -284 1 300;
#X msg 504 493 open riff17.wav \, start;
#X obj 747 -574 s noteInBang;
#X obj 245 -440 r noteInBang;
#X obj 833 35 r noteInBang;
#X obj -244 -110 r noteInBang;
#X text -188 31 Arp For Square;
#X text 189 -460 Diving pitch routine;
#X obj 769 -516 s frequency;
#X obj 494 131 r frequency;
#X obj -2 -163 r frequency;
#X obj -107 126 r frequency;
#X obj 283 -191 s DiveBang;
#X obj 213 -85 s subFreq;
#X obj 213 157 r subFreq;
#X obj 326 -68 s sawFreq;
#X obj 337 159 r sawFreq;
#X floatatom 121 -86 5 0 0 0 - - -, f 5;
#X msg 286 -284 0.5 300;
#X obj 1231 -194 s squareVol;
#X obj 1317 -194 s subVol;
#X obj 1395 -194 s sawVol;
#X obj 1469 -194 s saw2Vol;
#X obj 1541 -194 s pDive1;
#X obj 1606 -194 s pDive2;
#X obj 1671 -194 s pDive3;
#X msg 1231 -218 0.01;
#X msg 1317 -218 1;
#X msg 1541 -216 1 5;
#X msg 1606 -216 0.5 300;
#X obj 1735 -194 s pDiveDel1;
#X msg 1735 -216 5;
#X msg 1820 -216 300;
#X obj 1820 -194 s pDiveDel2;
#X obj -96 347 r squareVol;
#X obj 222 202 r subVol;
#X obj 345 202 r sawVol;
#X obj 503 200 r saw2Vol;
#X obj 154 -323 r pDive1;
#X msg -132 385 set \$1 \$2;
#X msg -132 385 set \$1 \$2;
#X msg 154 -301 set \$1 \$2;
#X obj 295 -374 r pDive2;
#X obj 416 -358 r pDive3;
#X msg 295 -352 set \$1 \$2;
#X msg 416 -336 set \$1 \$2;
#X obj 332 -419 r pDiveDel1;
#X obj 433 -423 r pDiveDel2;
#X obj 1908 -194 s mEnv1;
#X obj 1973 -194 s mEnv2;
#X obj 2038 -194 s mEnv3;
#X obj 2102 -194 s mEnvDel1;
#X obj 2187 -194 s mEnvDel2;
#X floatatom 1423 -675 5 0 0 0 - - -, f 5;
#X obj 1423 -701 ctlin 5 1;
#X obj 1426 -654 hsl 128 15 0 127 0 0 empty empty empty -2 -8 0 10
-262144 -1 -1 4500 1;
#X floatatom 1472 -591 5 0 0 0 - - -, f 5;
#X floatatom 1531 -591 5 0 0 0 - - -, f 5;
#X floatatom 1585 -591 5 0 0 0 - - -, f 5;
#X floatatom 1644 -591 5 0 0 0 - - -, f 5;
#X obj 1585 -610 >= 64;
#X floatatom 1692 -591 5 0 0 0 - - -, f 5;
#X obj 1692 -613 >= 96;
#X obj 1500 -570 &&;
#X obj 1616 -573 &&;
#X floatatom 1500 -545 5 0 0 0 - - -, f 5;
#X floatatom 1616 -551 5 0 0 0 - - -, f 5;
#X obj 1616 -532 change;
#X obj 1692 -572 change;
#X floatatom 1360 -581 5 0 0 0 - - -, f 5;
#X obj 1360 -562 change;
#X obj 1500 -526 change;
#X obj 1472 -613 >= 32;
#X obj 1339 -545 tgl 15 0 empty empty empty 17 7 0 10 -262144 -1 -1
0 1;
#X obj 1478 -509 tgl 15 0 empty empty empty 17 7 0 10 -262144 -1 -1
1 1;
#X obj 1595 -515 tgl 15 0 empty empty empty 17 7 0 10 -262144 -1 -1
0 1;
#X obj 1671 -555 tgl 15 0 empty empty empty 17 7 0 10 -262144 -1 -1
0 1;
#X obj 1368 -609 < 28;
#X obj 1531 -613 < 60;
#X obj 1644 -613 < 92;
#X obj 1360 -539 s preset1;
#X obj 1683 -335 r preset1;
#X obj 1500 -504 s preset2;
#X obj 1232 -6 s squareVol;
#X obj 1318 -6 s subVol;
#X obj 1396 -6 s sawVol;
#X obj 1470 -6 s saw2Vol;
#X obj 1542 -6 s pDive1;
#X obj 1607 -6 s pDive2;
#X obj 1672 -6 s pDive3;
#X msg 1318 -30 1;
#X msg 1542 -28 1 5;
#X obj 1736 -6 s pDiveDel1;
#X msg 1736 -28 5;
#X msg 1821 -28 300;
#X obj 1821 -6 s pDiveDel2;
#X obj 1909 -6 s mEnv1;
#X obj 1974 -6 s mEnv2;
#X obj 2039 -6 s mEnv3;
#X obj 2103 -6 s mEnvDel1;
#X obj 2188 -6 s mEnvDel2;
#X obj 1684 -147 r preset2;
#X obj 1132 -194 s squareSpeed;
#X obj 1133 -6 s squareSpeed;
#X msg 1132 -218 100;
#X msg 1232 -30 0.1;
#X msg 1133 -30 25;
#X obj -212 -65 r squareSpeed;
#X msg 1973 -216 1 30;
#X msg 1974 -28 1 30;
#X msg 2039 -28 0 1500;
#X msg 2038 -216 0 1500;
#X msg 2102 -216 10;
#X msg 2187 -216 40;
#X msg 2103 -28 10;
#X msg 2188 -28 40;
#X obj 839 176 r mEnv1;
#X obj 929 175 r mEnv2;
#X obj 1008 174 r mEnv3;
#X obj 1001 73 r mEnvDel2;
#X obj 922 56 r mEnvDel1;
#X msg 839 197 set \$1 \$2;
#X msg 1008 196 set \$1 \$2;
#X msg 929 196 set \$1 \$2;
#X obj 1001 94 delay 300;
#X msg 378 350 0.1;
#X obj -142 370 *~ 0.01;
#X msg 1395 -217 0.1;
#X msg 1469 -217 0.1;
#X msg 1396 -29 0.1;
#X msg 1470 -29 0.1;
#X msg 922 217 1 30;
#X obj 922 77 delay 50;
#X msg 833 217 1 10;
#X msg 1908 -216 1 10;
#X msg 1909 -28 1 10;
#X msg 1671 -216 1 300;
#X msg 1672 -28 0.5 300;
#X msg 1607 -28 1 100;
#X obj 1233 186 s squareVol;
#X obj 1319 186 s subVol;
#X obj 1397 186 s sawVol;
#X obj 1471 186 s saw2Vol;
#X obj 1543 186 s pDive1;
#X obj 1608 186 s pDive2;
#X obj 1673 186 s pDive3;
#X msg 1319 162 1;
#X obj 1737 186 s pDiveDel1;
#X msg 1737 164 5;
#X msg 1822 164 300;
#X obj 1822 186 s pDiveDel2;
#X obj 1910 186 s mEnv1;
#X obj 1975 186 s mEnv2;
#X obj 2040 186 s mEnv3;
#X obj 2104 186 s mEnvDel1;
#X obj 2189 186 s mEnvDel2;
#X obj 1134 186 s squareSpeed;
#X msg 1233 162 0.1;
#X msg 1134 162 25;
#X msg 1975 164 1 30;
#X msg 2104 164 10;
#X msg 2189 164 40;
#X msg 1397 163 0.1;
#X msg 1471 163 0.1;
#X msg 1910 164 1 10;
#X obj 1685 45 r preset3;
#X obj 1616 -510 s preset3;
#X msg 2040 164 1 1500;
#X msg 1673 164 0.5 100;
#X msg 1608 164 0.5 100;
#X msg 1543 164 0.5 5;
#X obj 337 470 hip~;
#X floatatom 395 475 5 0 0 0 - - -, f 5;
#X obj 402 409 loadbang;
#X msg 402 431 30;
#X obj 337 492 *~;
#X obj 82 -125 spigot;
#X obj 104 -144 tgl 15 0 empty empty empty 17 7 0 10 -262144 -1 -1
1 1;
#X floatatom 67 -55 5 0 0 0 - - -, f 5;
#X floatatom 1852 -669 5 0 0 0 - - -, f 5;
#X obj 1855 -648 hsl 128 15 0 127 0 0 empty empty empty -2 -8 0 10
-262144 -1 -1 10600 1;
#X floatatom 1789 -575 5 0 0 0 - - -, f 5;
#X obj 1789 -556 change;
#X obj 1768 -539 tgl 15 0 empty empty empty 17 7 0 10 -262144 -1 -1
1 1;
#X obj 1852 -695 ctlin 0 1;
#X obj 1797 -603 > 30;
#X obj 1789 -533 s subFreezer;
#X obj 102 -174 r subFreezer;
#X obj 1643 -1031 hradio 50 1 0 8 empty empty empty 0 -8 0 10 -262144
-1 -1 2;
#X obj 1643 -976 select 0 1 2 3;
#X obj 1612 -923 bng 15 250 50 0 empty empty empty 17 7 0 10 -262144
-1 -1;
#X obj 1649 -923 bng 15 250 50 0 empty empty empty 17 7 0 10 -262144
-1 -1;
#X obj 1687 -923 bng 15 250 50 0 empty empty empty 17 7 0 10 -262144
-1 -1;
#X obj 1725 -923 bng 15 250 50 0 empty empty empty 17 7 0 10 -262144
-1 -1;
#X obj 1607 -840 s preset1;
#X obj 1683 -840 s preset2;
#X obj 1758 -839 s preset3;
#X obj 1834 -839 s preset4;
#X connect 1 0 45 0;
#X connect 2 0 45 1;
#X connect 3 0 46 0;
#X connect 4 0 46 1;
#X connect 5 0 3 0;
#X connect 6 0 44 1;
#X connect 7 0 44 0;
#X connect 8 0 65 0;
#X connect 8 0 84 0;
#X connect 9 0 44 1;
#X connect 10 0 45 1;
#X connect 11 0 46 1;
#X connect 12 0 204 0;
#X connect 12 0 203 0;
#X connect 13 0 39 0;
#X connect 14 0 242 0;
#X connect 15 0 14 0;
#X connect 16 0 15 1;
#X connect 17 0 15 2;
#X connect 18 0 19 0;
#X connect 19 0 42 0;
#X connect 20 0 21 0;
#X connect 21 0 22 0;
#X connect 22 0 23 0;
#X connect 22 0 25 0;
#X connect 23 0 24 0;
#X connect 24 0 26 0;
#X connect 25 0 22 1;
#X connect 26 0 35 0;
#X connect 26 1 36 0;
#X connect 26 2 37 0;
#X connect 26 3 38 0;
#X connect 27 0 28 0;
#X connect 28 0 19 1;
#X connect 29 0 40 0;
#X connect 29 0 0 1;
#X connect 29 0 0 0;
#X connect 32 0 30 0;
#X connect 32 0 18 0;
#X connect 33 0 32 0;
#X connect 34 0 15 0;
#X connect 35 0 32 1;
#X connect 35 0 33 0;
#X connect 36 0 32 1;
#X connect 36 0 33 0;
#X connect 37 0 32 1;
#X connect 37 0 33 0;
#X connect 38 0 32 1;
#X connect 38 0 33 0;
#X connect 39 0 29 1;
#X connect 41 0 40 0;
#X connect 42 0 197 0;
#X connect 43 0 27 0;
#X connect 44 0 34 0;
#X connect 45 0 34 0;
#X connect 46 0 34 0;
#X connect 47 0 48 0;
#X connect 47 0 49 0;
#X connect 48 0 59 0;
#X connect 49 0 50 0;
#X connect 50 0 51 0;
#X connect 50 0 53 0;
#X connect 52 0 48 1;
#X connect 53 0 52 0;
#X connect 54 0 68 0;
#X connect 54 0 79 0;
#X connect 55 0 43 0;
#X connect 56 0 57 0;
#X connect 57 0 21 1;
#X connect 58 0 13 0;
#X connect 59 0 54 0;
#X connect 59 0 67 0;
#X connect 59 0 73 0;
#X connect 60 0 70 0;
#X connect 60 0 63 0;
#X connect 61 0 62 0;
#X connect 61 0 8 1;
#X connect 61 0 64 0;
#X connect 61 0 83 0;
#X connect 63 0 69 0;
#X connect 63 0 89 0;
#X connect 64 0 8 0;
#X connect 65 0 66 0;
#X connect 65 0 86 0;
#X connect 69 0 71 0;
#X connect 70 0 61 0;
#X connect 71 0 61 0;
#X connect 72 0 40 0;
#X connect 74 0 60 0;
#X connect 75 0 12 0;
#X connect 76 0 21 0;
#X connect 80 0 5 0;
#X connect 81 0 247 0;
#X connect 82 0 32 0;
#X connect 82 0 31 0;
#X connect 85 0 7 0;
#X connect 87 0 1 0;
#X connect 89 0 61 0;
#X connect 97 0 90 0;
#X connect 98 0 91 0;
#X connect 99 0 94 0;
#X connect 100 0 95 0;
#X connect 102 0 101 0;
#X connect 103 0 104 0;
#X connect 105 0 197 1;
#X connect 106 0 44 1;
#X connect 107 0 45 1;
#X connect 108 0 46 1;
#X connect 109 0 112 0;
#X connect 112 0 70 0;
#X connect 113 0 115 0;
#X connect 114 0 116 0;
#X connect 115 0 89 0;
#X connect 116 0 71 0;
#X connect 117 0 63 1;
#X connect 118 0 69 1;
#X connect 124 0 126 0;
#X connect 125 0 124 0;
#X connect 126 0 131 0;
#X connect 126 0 133 0;
#X connect 126 0 143 0;
#X connect 126 0 148 0;
#X connect 126 0 149 0;
#X connect 126 0 150 0;
#X connect 127 0 134 0;
#X connect 128 0 134 1;
#X connect 129 0 135 0;
#X connect 130 0 135 1;
#X connect 131 0 129 0;
#X connect 132 0 139 0;
#X connect 133 0 132 0;
#X connect 134 0 136 0;
#X connect 135 0 137 0;
#X connect 136 0 142 0;
#X connect 137 0 138 0;
#X connect 138 0 146 0;
#X connect 138 0 237 0;
#X connect 139 0 147 0;
#X connect 140 0 141 0;
#X connect 141 0 144 0;
#X connect 141 0 151 0;
#X connect 142 0 145 0;
#X connect 142 0 153 0;
#X connect 143 0 127 0;
#X connect 148 0 140 0;
#X connect 149 0 128 0;
#X connect 150 0 130 0;
#X connect 152 0 97 0;
#X connect 152 0 98 0;
#X connect 152 0 198 0;
#X connect 152 0 199 0;
#X connect 152 0 99 0;
#X connect 152 0 100 0;
#X connect 152 0 207 0;
#X connect 152 0 102 0;
#X connect 152 0 103 0;
#X connect 152 0 205 0;
#X connect 152 0 179 0;
#X connect 152 0 182 0;
#X connect 152 0 183 0;
#X connect 152 0 184 0;
#X connect 152 0 175 0;
#X connect 161 0 155 0;
#X connect 162 0 158 0;
#X connect 164 0 163 0;
#X connect 165 0 166 0;
#X connect 172 0 176 0;
#X connect 172 0 161 0;
#X connect 172 0 200 0;
#X connect 172 0 201 0;
#X connect 172 0 162 0;
#X connect 172 0 209 0;
#X connect 172 0 208 0;
#X connect 172 0 164 0;
#X connect 172 0 165 0;
#X connect 172 0 206 0;
#X connect 172 0 180 0;
#X connect 172 0 181 0;
#X connect 172 0 185 0;
#X connect 172 0 186 0;
#X connect 172 0 177 0;
#X connect 175 0 173 0;
#X connect 176 0 154 0;
#X connect 177 0 174 0;
#X connect 178 0 21 1;
#X connect 179 0 120 0;
#X connect 180 0 168 0;
#X connect 181 0 169 0;
#X connect 182 0 121 0;
#X connect 183 0 122 0;
#X connect 184 0 123 0;
#X connect 185 0 170 0;
#X connect 186 0 171 0;
#X connect 187 0 192 0;
#X connect 188 0 194 0;
#X connect 189 0 193 0;
#X connect 190 0 195 0;
#X connect 191 0 203 0;
#X connect 192 0 204 0;
#X connect 193 0 58 0;
#X connect 194 0 202 0;
#X connect 195 0 58 0;
#X connect 196 0 14 1;
#X connect 197 0 14 0;
#X connect 198 0 92 0;
#X connect 199 0 93 0;
#X connect 200 0 156 0;
#X connect 201 0 157 0;
#X connect 202 0 13 0;
#X connect 203 0 202 0;
#X connect 203 0 195 0;
#X connect 204 0 13 0;
#X connect 205 0 119 0;
#X connect 206 0 167 0;
#X connect 207 0 96 0;
#X connect 208 0 160 0;
#X connect 209 0 159 0;
#X connect 217 0 211 0;
#X connect 219 0 218 0;
#X connect 220 0 221 0;
#X connect 228 0 210 0;
#X connect 229 0 227 0;
#X connect 230 0 223 0;
#X connect 231 0 225 0;
#X connect 232 0 226 0;
#X connect 233 0 212 0;
#X connect 234 0 213 0;
#X connect 235 0 222 0;
#X connect 236 0 228 0;
#X connect 236 0 217 0;
#X connect 236 0 233 0;
#X connect 236 0 234 0;
#X connect 236 0 241 0;
#X connect 236 0 240 0;
#X connect 236 0 239 0;
#X connect 236 0 219 0;
#X connect 236 0 220 0;
#X connect 236 0 235 0;
#X connect 236 0 230 0;
#X connect 236 0 238 0;
#X connect 236 0 231 0;
#X connect 236 0 232 0;
#X connect 236 0 229 0;
#X connect 238 0 224 0;
#X connect 239 0 216 0;
#X connect 240 0 215 0;
#X connect 241 0 214 0;
#X connect 242 0 29 0;
#X connect 242 0 246 0;
#X connect 243 0 242 1;
#X connect 244 0 245 0;
#X connect 245 0 242 1;
#X connect 247 0 249 0;
#X connect 247 0 88 0;
#X connect 247 0 8 0;
#X connect 248 0 247 1;
#X connect 250 0 251 0;
#X connect 251 0 256 0;
#X connect 252 0 253 0;
#X connect 253 0 254 0;
#X connect 253 0 257 0;
#X connect 255 0 250 0;
#X connect 256 0 252 0;
#X connect 258 0 248 0;
#X connect 259 0 260 0;
#X connect 260 0 261 0;
#X connect 260 0 265 0;
#X connect 260 1 262 0;
#X connect 260 1 266 0;
#X connect 260 2 263 0;
#X connect 260 2 267 0;
#X connect 260 3 264 0;
#X connect 260 3 268 0;
