#N canvas 256 189 997 566 10;
#X obj 206 -156 audiopitch;
#N canvas 0 50 450 250 (subpatch) 0;
#X array array1 105840 float 4;
#X coords 0 1 105839 -1 200 140 1;
#X restore -292 -339 graph;
#X obj 7 -338 openpanel;
#X obj 11 -379 bng 15 250 50 0 empty empty empty 17 7 0 10 -262144
-1 -1;
#X obj -20 -204 soundfiler;
#X msg 256 -377 stop;
#X obj 189 -339 bng 15 250 50 0 empty empty empty 17 7 0 10 -262144
-1 -1;
#X msg -20 -273 read -resize \$1 array1;
#X obj 199 -280 tabplay~ array1;
#X floatatom 174 -193 5 0 0 0 - - -, f 5;
#X obj 206 -86 *~ 0.5;
#X obj 206 -38 dac~;
#X connect 0 0 10 0;
#X connect 2 0 7 0;
#X connect 3 0 2 0;
#X connect 5 0 8 0;
#X connect 6 0 8 0;
#X connect 7 0 4 0;
#X connect 8 0 0 1;
#X connect 9 0 0 0;
#X connect 10 0 11 0;
#X connect 10 0 11 1;
