#N canvas 47 81 1535 819 10;
#X obj 276 -393 adc~;
#X obj 353 -259 *~;
#X floatatom 178 185 5 0 0 0 - - -, f 5;
#X floatatom 389 185 5 0 0 0 - - -, f 5;
#X floatatom 372 -276 5 0 0 0 - - -, f 5;
#X obj 202 387 *~;
#X floatatom 234 288 5 0 0 0 - - -, f 5;
#X obj 331 796 *~;
#X floatatom 581 782 5 0 0 0 - - -, f 5;
#X obj 178 5 vsl 15 128 0 127 0 0 empty empty empty 0 -9 0 10 -262144
-1 -1 11300 1;
#X obj 178 141 / 12.7;
#X obj 385 -39 vsl 15 128 0 127 0 0 empty empty empty 0 -9 0 10 -262144
-1 -1 12700 1;
#X obj 389 141 / 12.7;
#X obj 178 163 - 10;
#X obj 59 -141 loadbang;
#X floatatom 114 -68 5 0 0 0 - - -, f 5;
#X obj 389 205 audiopitch2;
#X obj 28 -54 countto4;
#X obj 385 -352 clip~ -0.5 5;
#X msg -70 124 -5.2;
#X msg -8 124 -10.4;
#X msg 63 124 -20.8;
#X msg 122 124 -10.4;
#X obj 385 -394 *~ 20;
#N canvas 0 50 450 250 (subpatch) 0;
#X array array2 2592 float 4;
#X coords 0 1 2591 -1 200 140 1 0 0;
#X restore -508 162 graph;
#X obj -303 206 openpanel;
#X obj -303 186 bng 15 250 50 0 empty empty empty 17 7 0 10 -262144
-1 -1;
#X obj -303 250 soundfiler;
#X msg -303 228 read -resize \$1 array2;
#X obj -136 228 tabplay~ array2;
#X obj 419 -315 loadbang;
#X obj 285 249 loadbang;
#X obj 623 742 loadbang;
#X msg 81 -76 70;
#X floatatom -616 -292 5 0 0 0 - - -, f 5;
#X obj -534 -133 change;
#X obj -534 -211 moses;
#X floatatom -507 -235 5 0 0 0 - - -, f 5;
#X obj -507 -182 moses;
#X floatatom -480 -204 5 0 0 0 - - -, f 5;
#X msg -534 -159 0;
#X msg -480 -159 1;
#X obj -534 -111 select 1;
#X obj -578 -86 bng 15 250 50 0 empty empty empty 17 7 0 10 -262144
-1 -1;
#X obj -534 -268 env~;
#X text -584 -235 Hysteresis lower threshold;
#X text -554 -205 Hysteresis upper threshold;
#X obj -439 -279 loadbang;
#X floatatom -629 -228 5 0 0 0 - - -, f 5;
#X obj -604 -327 fiddle~;
#X floatatom -692 -324 5 0 0 0 - - -, f 5;
#X obj -268 -216 bonk~;
#X obj -217 -198 unpack f f;
#X floatatom -150 -175 5 0 0 0 - - -, f 5;
#X text -193 -178 (3);
#X obj -202 -263 loadbang;
#X obj -197 -76 bng 15 250 50 0 empty empty empty 17 7 0 10 -262144
-1 -1;
#X obj 646 -710 dataenv;
#X floatatom 578 -734 5 0 0 0 - - -, f 5;
#X floatatom 622 -734 5 0 0 0 - - -, f 5;
#X floatatom 715 -734 5 0 0 0 - - -, f 5;
#X floatatom 756 -734 5 0 0 0 - - -, f 5;
#X floatatom 673 -734 5 0 0 0 - - -, f 5;
#X floatatom 526 739 5 0 0 0 - - -, f 5;
#X floatatom 646 -688 5 0 0 0 - - -, f 5;
#X msg 893 311 bang;
#X obj 960 593 line;
#X msg 871 494 set \$1 \$2;
#X msg 1034 522 set \$1 \$2;
#X floatatom 960 615 5 0 0 0 - - -, f 5;
#X msg 831 560 50 10;
#X floatatom -268 -194 5 0 0 0 - - -, f 5;
#X obj 389 163 - 5.1;
#X msg 41 205 bang;
#X msg -13 316 0 10;
#X msg 117 316 0 50;
#X obj 41 237 delay 10;
#X obj 117 237 delay 20;
#X msg 690 389 300 300;
#X obj 893 364 delay 10;
#X msg 794 281 500 1000;
#X obj 1023 340 delay 1010;
#X obj -157 37 r seq1;
#X obj -335 44 s seq1;
#X obj -59 36 r seq2;
#X obj 30 36 r seq3;
#X obj 103 36 r seq4;
#X obj -298 -32 send trig;
#X obj 893 282 receive trig;
#X obj 648 519 receive trig;
#X obj 738 496 r bFiltA;
#X obj 859 440 r bFiltB;
#X obj 1056 480 r bFiltC;
#X obj 907 341 r bFiltDel1;
#X obj 1120 265 r bFiltDel2;
#X msg 799 533 set \$1 \$2;
#X obj 601 161 s seq1;
#X obj 651 161 s seq2;
#X obj 701 161 s seq3;
#X obj 751 161 s seq4;
#X obj 801 161 s bFiltA;
#X obj 865 161 s bFiltB;
#X obj 929 161 s bFiltC;
#X obj 993 161 s bFiltDel1;
#X obj 1078 161 s bFiltDel2;
#X floatatom 905 -225 5 0 0 0 - - -, f 5;
#X obj 905 -268 ctlin 5 1;
#X obj 911 -191 hsl 128 15 0 127 0 0 empty empty empty -2 -8 0 10 -262144
-1 -1 6900 1;
#X floatatom 957 -128 5 0 0 0 - - -, f 5;
#X floatatom 1016 -128 5 0 0 0 - - -, f 5;
#X floatatom 801 25 5 0 0 0 - - -, f 5;
#X obj 801 3 < 32;
#X floatatom 1070 -128 5 0 0 0 - - -, f 5;
#X floatatom 1129 -128 5 0 0 0 - - -, f 5;
#X obj 1070 -147 >= 64;
#X obj 1129 -150 < 96;
#X floatatom 1177 -128 5 0 0 0 - - -, f 5;
#X obj 1177 -150 >= 96;
#X obj 985 -107 &&;
#X obj 1101 -110 &&;
#X floatatom 985 -82 5 0 0 0 - - -, f 5;
#X floatatom 1101 -88 5 0 0 0 - - -, f 5;
#X obj -208 124 r drum;
#X obj 801 71 change;
#X obj 1101 -69 change;
#X obj 1177 -109 change;
#X msg 601 140 -5.2;
#X msg 651 140 -10.4;
#X msg 701 140 -20.8;
#X msg 751 140 -10.4;
#X msg 801 119 50 10;
#X msg 865 140 500 100;
#X msg 992 140 10;
#X msg 98 60 set \$1;
#X msg 12 60 set \$1;
#X msg -70 60 set \$1;
#X msg -157 60 set \$1;
#X msg 929 140 50 100;
#X msg 327 130 4.9;
#X obj 315 64 loadbang;
#X obj 858 67 s seq1;
#X obj 908 67 s seq2;
#X obj 958 67 s seq3;
#X obj 1008 67 s seq4;
#X obj 1058 67 s bFiltA;
#X obj 1122 67 s bFiltB;
#X obj 1186 67 s bFiltC;
#X obj 1250 67 s bFiltDel1;
#X obj 1335 67 s bFiltDel2;
#X obj 1437 -44 change;
#X msg 858 46 -5.2;
#X msg 908 46 -10.4;
#X msg 958 46 -20.8;
#X msg 1008 46 -10.4;
#X msg 1058 25 50 10;
#X msg 1249 46 10;
#N canvas 0 50 450 250 (subpatch) 0;
#X array array3 32512 float 4;
#X coords 0 1 32511 -1 200 140 1 0 0;
#X restore -507 407 graph;
#X obj -303 450 openpanel;
#X obj -303 430 bng 15 250 50 0 empty empty empty 17 7 0 10 -262144
-1 -1;
#X obj -303 494 soundfiler;
#X obj -208 368 r drum;
#X msg -303 472 read -resize \$1 array3;
#X obj -136 472 tabplay~ array3;
#X obj -306 -117 s drum;
#X obj 226 -371 *~ 4;
#X obj -491 -18 s drum;
#X msg -200 -241 thresh 6 50;
#X obj -106 -263 loadbang;
#X obj -5 -263 loadbang;
#X obj 92 -263 loadbang;
#X msg -104 -241 minvel 10;
#X msg -3 -241 mask 4 0.7;
#X msg 94 -241 debounce 0;
#X msg 1078 140 300;
#X msg 893 560 500 500;
#X msg 985 559 50 300;
#X obj 496 -119 line;
#X msg 496 -284 bang;
#X obj 517 -329 r trig;
#X floatatom 478 674 5 0 0 0 - - -, f 5;
#X msg 496 -172 5.3 10;
#X obj 557 -259 delay 10;
#X msg 1186 46 50 300;
#X obj 15 350 line~;
#X msg 41 316 6 10;
#X obj 648 -247 delay 100;
#X msg 553 -173 -5.2 100;
#X msg 416 -205 set \$1 \$2;
#X msg 512 -205 set \$1 \$2;
#X msg 603 -205 set \$1 \$2;
#X obj 417 -233 r pb1;
#X obj 503 -232 r pb2;
#X obj 590 -236 r pb3;
#X obj 604 -296 r pbDel1;
#X obj 707 -290 r pbDel2;
#X msg 1626 46 10;
#X obj 1424 68 s pb1;
#X obj 1495 68 s pb2;
#X obj 1555 68 s pb3;
#X obj 1626 68 s pbDel1;
#X obj 1697 68 s pbDel2;
#X msg 1683 46 100;
#X msg 1493 46 -5.2 100;
#X msg 1122 46 500 500;
#X msg 1335 46 100;
#X obj 1320 -383 bng 15 250 50 0 empty empty empty 17 7 0 10 -262144
-1 -1;
#X floatatom 845 -151 5 0 0 0 - - -, f 5;
#X obj 957 -150 >= 40;
#X obj 1016 -150 300;
#X obj 276 -371 lop~ 10000;
#X obj -204 169 delay 2000;
#X obj -185 146 bng 15 250 50 0 empty empty empty 17 7 0 10 -262144
-1 -1;
#X obj -156 190 bng 15 250 50 0 empty empty empty 17 7 0 10 -262144
-1 -1;
#X floatatom -130 133 5 0 0 0 - - -, f 5;
#X obj 178 227 lop~ 10000;
#X obj -532 -66 bng 15 250 50 0 empty empty empty 17 7 0 10 -262144
-1 -1;
#X msg -498 -258 100;
#X msg -381 -243 80;
#X obj -718 -375 sigmund~ pitch;
#X floatatom -754 -331 5 0 0 0 - - -, f 5;
#X msg 419 -294 0.1;
#X obj 245 851 dac~;
#X msg 1424 46 5.3 10;
#X obj 603 504 vsl 15 128 0 127 0 0 empty empty empty 0 -9 0 10 -262144
-1 -1 800 1;
#X obj 613 711 * 10;
#X msg 1556 47 4.89 200;
#X obj -135 265 *~ 0;
#X obj -135 508 *~ 0;
#X msg 616 -173 4.89 200;
#X obj 178 205 audiopitch;
#X obj 295 501 clip~ -1 1;
#X obj 296 438 *~ 10;
#X obj 431 753 bob~;
#X msg 285 271 2;
#X obj 245 829 *~ 5;
#X msg 623 765 8;
#X connect 0 0 164 0;
#X connect 0 0 209 0;
#X connect 1 0 16 1;
#X connect 1 0 229 1;
#X connect 2 0 229 0;
#X connect 3 0 16 0;
#X connect 4 0 1 1;
#X connect 5 0 234 0;
#X connect 6 0 5 1;
#X connect 7 0 234 0;
#X connect 8 0 7 1;
#X connect 9 0 10 0;
#X connect 10 0 13 0;
#X connect 11 0 12 0;
#X connect 12 0 72 0;
#X connect 13 0 2 0;
#X connect 14 0 33 0;
#X connect 15 0 17 1;
#X connect 16 0 231 0;
#X connect 16 0 232 0;
#X connect 17 0 19 0;
#X connect 17 1 20 0;
#X connect 17 2 21 0;
#X connect 17 3 22 0;
#X connect 19 0 73 0;
#X connect 19 0 229 0;
#X connect 20 0 73 0;
#X connect 20 0 229 0;
#X connect 21 0 73 0;
#X connect 21 0 229 0;
#X connect 22 0 73 0;
#X connect 22 0 229 0;
#X connect 23 0 18 0;
#X connect 25 0 28 0;
#X connect 26 0 25 0;
#X connect 28 0 27 0;
#X connect 29 0 226 0;
#X connect 30 0 220 0;
#X connect 31 0 233 0;
#X connect 32 0 235 0;
#X connect 33 0 17 1;
#X connect 35 0 42 0;
#X connect 36 0 40 0;
#X connect 36 1 38 0;
#X connect 37 0 36 1;
#X connect 38 1 41 0;
#X connect 39 0 38 1;
#X connect 40 0 35 0;
#X connect 41 0 35 0;
#X connect 42 0 215 0;
#X connect 44 0 36 0;
#X connect 44 0 48 0;
#X connect 47 0 217 0;
#X connect 47 0 216 0;
#X connect 49 0 34 0;
#X connect 51 0 71 0;
#X connect 51 1 52 0;
#X connect 52 1 53 0;
#X connect 53 0 56 0;
#X connect 53 0 163 0;
#X connect 55 0 166 0;
#X connect 56 0 17 0;
#X connect 56 0 87 0;
#X connect 57 0 64 0;
#X connect 58 0 57 0;
#X connect 59 0 57 1;
#X connect 60 0 57 4;
#X connect 61 0 57 5;
#X connect 62 0 57 3;
#X connect 63 0 232 2;
#X connect 65 0 79 0;
#X connect 65 0 81 0;
#X connect 66 0 69 0;
#X connect 67 0 174 0;
#X connect 68 0 175 0;
#X connect 70 0 66 0;
#X connect 72 0 3 0;
#X connect 73 0 74 0;
#X connect 73 0 76 0;
#X connect 73 0 77 0;
#X connect 74 0 183 0;
#X connect 75 0 183 0;
#X connect 76 0 184 0;
#X connect 77 0 75 0;
#X connect 78 0 67 0;
#X connect 79 0 174 0;
#X connect 80 0 67 0;
#X connect 81 0 175 0;
#X connect 82 0 136 0;
#X connect 84 0 135 0;
#X connect 85 0 134 0;
#X connect 86 0 133 0;
#X connect 88 0 65 0;
#X connect 89 0 70 0;
#X connect 90 0 95 0;
#X connect 91 0 67 0;
#X connect 92 0 68 0;
#X connect 93 0 79 0;
#X connect 94 0 81 1;
#X connect 95 0 70 0;
#X connect 105 0 107 0;
#X connect 106 0 105 0;
#X connect 107 0 111 0;
#X connect 107 0 114 0;
#X connect 107 0 115 0;
#X connect 107 0 117 0;
#X connect 107 0 206 0;
#X connect 107 0 207 0;
#X connect 107 0 208 0;
#X connect 108 0 118 0;
#X connect 109 0 118 1;
#X connect 110 0 123 0;
#X connect 111 0 110 0;
#X connect 112 0 119 0;
#X connect 113 0 119 1;
#X connect 114 0 112 0;
#X connect 115 0 113 0;
#X connect 116 0 125 0;
#X connect 117 0 116 0;
#X connect 118 0 120 0;
#X connect 119 0 121 0;
#X connect 120 0 149 0;
#X connect 121 0 124 0;
#X connect 122 0 211 0;
#X connect 123 0 126 0;
#X connect 123 0 127 0;
#X connect 123 0 128 0;
#X connect 123 0 129 0;
#X connect 123 0 130 0;
#X connect 123 0 131 0;
#X connect 123 0 137 0;
#X connect 123 0 132 0;
#X connect 123 0 173 0;
#X connect 126 0 96 0;
#X connect 127 0 97 0;
#X connect 128 0 98 0;
#X connect 129 0 99 0;
#X connect 130 0 100 0;
#X connect 131 0 101 0;
#X connect 133 0 22 0;
#X connect 134 0 21 0;
#X connect 135 0 20 0;
#X connect 136 0 19 0;
#X connect 137 0 102 0;
#X connect 138 0 3 0;
#X connect 139 0 138 0;
#X connect 149 0 150 0;
#X connect 149 0 151 0;
#X connect 149 0 152 0;
#X connect 149 0 153 0;
#X connect 149 0 154 0;
#X connect 149 0 203 0;
#X connect 149 0 182 0;
#X connect 149 0 155 0;
#X connect 149 0 204 0;
#X connect 149 0 222 0;
#X connect 149 0 202 0;
#X connect 149 0 225 0;
#X connect 149 0 195 0;
#X connect 149 0 201 0;
#X connect 149 0 205 0;
#X connect 150 0 140 0;
#X connect 151 0 141 0;
#X connect 152 0 142 0;
#X connect 153 0 143 0;
#X connect 154 0 144 0;
#X connect 155 0 147 0;
#X connect 157 0 161 0;
#X connect 158 0 157 0;
#X connect 160 0 162 0;
#X connect 161 0 159 0;
#X connect 162 0 227 0;
#X connect 164 0 51 0;
#X connect 164 0 44 0;
#X connect 164 0 49 0;
#X connect 164 0 218 0;
#X connect 166 0 51 0;
#X connect 167 0 170 0;
#X connect 168 0 171 0;
#X connect 169 0 172 0;
#X connect 170 0 51 0;
#X connect 171 0 51 0;
#X connect 172 0 51 0;
#X connect 173 0 104 0;
#X connect 174 0 66 0;
#X connect 175 0 66 0;
#X connect 176 0 3 0;
#X connect 177 0 180 0;
#X connect 177 0 181 0;
#X connect 178 0 177 0;
#X connect 179 0 232 1;
#X connect 180 0 176 0;
#X connect 181 0 186 0;
#X connect 181 0 185 0;
#X connect 182 0 146 0;
#X connect 183 0 5 1;
#X connect 184 0 183 0;
#X connect 185 0 228 0;
#X connect 186 0 176 0;
#X connect 187 0 180 0;
#X connect 188 0 186 0;
#X connect 189 0 228 0;
#X connect 190 0 187 0;
#X connect 191 0 188 0;
#X connect 192 0 189 0;
#X connect 193 0 181 1;
#X connect 194 0 185 1;
#X connect 195 0 199 0;
#X connect 201 0 200 0;
#X connect 202 0 197 0;
#X connect 203 0 145 0;
#X connect 204 0 148 0;
#X connect 207 0 108 0;
#X connect 208 0 109 0;
#X connect 209 0 1 0;
#X connect 210 0 29 0;
#X connect 210 0 212 0;
#X connect 211 0 210 0;
#X connect 213 0 210 1;
#X connect 214 0 5 0;
#X connect 216 0 37 0;
#X connect 217 0 39 0;
#X connect 218 0 219 0;
#X connect 218 0 43 0;
#X connect 220 0 4 0;
#X connect 222 0 196 0;
#X connect 223 0 224 0;
#X connect 224 0 179 0;
#X connect 225 0 198 0;
#X connect 226 0 234 0;
#X connect 227 0 234 0;
#X connect 228 0 176 0;
#X connect 229 0 214 0;
#X connect 231 0 230 0;
#X connect 232 0 7 0;
#X connect 233 0 6 0;
#X connect 234 0 221 0;
#X connect 234 0 221 1;
#X connect 235 0 8 0;
